<?xml version="1.0" encoding="UTF-8"?>
<svg width="831px" height="694px" viewBox="0 0 831 694" version="1.1" xmlns="http://www.w3.org/2000/svg" xmlns:xlink="http://www.w3.org/1999/xlink">
    <!-- Generator: Sketch 46.2 (44496) - http://www.bohemiancoding.com/sketch -->
    <title>allocationviz</title>
    <desc>Created with Sketch.</desc>
    <defs>
        <filter x="-6.1%" y="-6.1%" width="112.3%" height="112.3%" filterUnits="objectBoundingBox" id="filter-1">
            <feGaussianBlur stdDeviation="0.546875" in="SourceGraphic"></feGaussianBlur>
        </filter>
        <filter x="-6.1%" y="-6.1%" width="112.3%" height="112.2%" filterUnits="objectBoundingBox" id="filter-2">
            <feGaussianBlur stdDeviation="0.546875" in="SourceGraphic"></feGaussianBlur>
        </filter>
        <filter x="-6.0%" y="-6.0%" width="112.0%" height="112.0%" filterUnits="objectBoundingBox" id="filter-3">
            <feGaussianBlur stdDeviation="0.546875" in="SourceGraphic"></feGaussianBlur>
        </filter>
        <filter x="-6.1%" y="-6.1%" width="112.3%" height="112.3%" filterUnits="objectBoundingBox" id="filter-4">
            <feGaussianBlur stdDeviation="0.546875" in="SourceGraphic"></feGaussianBlur>
        </filter>
        <filter x="-6.1%" y="-6.1%" width="112.3%" height="112.2%" filterUnits="objectBoundingBox" id="filter-5">
            <feGaussianBlur stdDeviation="0.546875" in="SourceGraphic"></feGaussianBlur>
        </filter>
        <filter x="-6.0%" y="-6.0%" width="112.0%" height="112.0%" filterUnits="objectBoundingBox" id="filter-6">
            <feGaussianBlur stdDeviation="0.546875" in="SourceGraphic"></feGaussianBlur>
        </filter>
        <filter x="-6.1%" y="-6.1%" width="112.3%" height="112.2%" filterUnits="objectBoundingBox" id="filter-7">
            <feGaussianBlur stdDeviation="0.546875" in="SourceGraphic"></feGaussianBlur>
        </filter>
        <filter x="-24.3%" y="-24.3%" width="148.7%" height="148.7%" filterUnits="objectBoundingBox" id="filter-8">
            <feGaussianBlur stdDeviation="40" in="SourceGraphic"></feGaussianBlur>
        </filter>
        <ellipse id="path-9" cx="142" cy="142.5" rx="142" ry="142.5"></ellipse>
        <filter x="-10.9%" y="-10.9%" width="121.8%" height="121.8%" filterUnits="objectBoundingBox" id="filter-10">
            <feGaussianBlur stdDeviation="2" in="SourceGraphic"></feGaussianBlur>
        </filter>
        <filter x="-15.3%" y="-15.3%" width="130.6%" height="130.5%" filterUnits="objectBoundingBox" id="filter-11">
            <feMorphology radius="5" operator="dilate" in="SourceAlpha" result="shadowSpreadOuter1"></feMorphology>
            <feOffset dx="0" dy="0" in="shadowSpreadOuter1" result="shadowOffsetOuter1"></feOffset>
            <feGaussianBlur stdDeviation="7.5" in="shadowOffsetOuter1" result="shadowBlurOuter1"></feGaussianBlur>
            <feColorMatrix values="0 0 0 0 0.356862745   0 0 0 0 0.968627451   0 0 0 0 0.968627451  0 0 0 0.204625226 0" type="matrix" in="shadowBlurOuter1"></feColorMatrix>
        </filter>
        <path d="M131.216882,12.4454148 L152.874556,12.4454148 L152.874556,12.4454148 C153.979126,12.4454148 154.874556,13.3408453 154.874556,14.4454148 C154.874556,14.5485937 154.866572,14.6516178 154.850675,14.7535645 L152.065235,32.6161775 C151.913379,33.5900035 151.074711,34.3080278 150.089116,34.3080278 L134.698682,34.3080278 C133.741643,34.3080278 132.918727,33.6300289 132.735626,32.6906686 L129.253827,14.8280557 L129.253827,14.8280557 C129.0425,13.7438902 129.750076,12.6936863 130.834241,12.4823596 C130.960306,12.4577869 131.088445,12.4454148 131.216882,12.4454148 Z M181.771842,18.1688205 L201.707836,26.6311479 C202.724598,27.0627376 203.198973,28.2368583 202.767383,29.2536199 C202.727068,29.3485965 202.679464,29.4403109 202.624997,29.5279419 L193.081507,44.8822058 C192.561219,45.7192827 191.508667,46.0525338 190.601422,45.6674313 L176.434452,39.6539093 C175.553493,39.2799643 175.060911,38.3343245 175.259402,37.3980955 L179.033868,19.5950261 C179.262958,18.5144746 180.324632,17.8242286 181.405184,18.0533186 C181.530828,18.0799567 181.653615,18.118636 181.771842,18.1688205 L181.771842,18.1688205 Z M226.042109,42.9127051 L241.356398,58.2269934 C242.137446,59.0080419 242.137446,60.2743719 241.356398,61.0554205 C241.283439,61.1283789 241.204944,61.1955821 241.121616,61.2564283 L226.521238,71.9175998 L226.521238,71.9175998 C225.725261,72.4988208 224.624513,72.4135127 223.927592,71.7165919 L213.044912,60.8339111 C212.368183,60.1571823 212.265711,59.0958758 212.800467,58.3021757 L222.969238,43.2093969 C223.586428,42.2933455 224.829366,42.0510708 225.745417,42.668261 C225.851934,42.7400268 225.95129,42.8218861 226.042109,42.9127051 L226.042109,42.9127051 Z M257.765303,82.8206224 L265.87841,102.901268 C266.29219,103.925407 265.797395,105.09107 264.773256,105.504849 C264.67759,105.543501 264.579077,105.574691 264.478598,105.598141 L246.873228,109.706979 L246.873228,109.706979 C245.913426,109.930983 244.933515,109.42236 244.564305,108.508533 L238.798946,94.2387698 C238.440433,93.3514187 238.760793,92.3344422 239.563162,91.8127833 L254.820783,81.8930623 C255.74684,81.290988 256.985634,81.5536274 257.587709,82.4796838 C257.657717,82.5873639 257.717189,82.7015374 257.765303,82.8206224 Z M271.636609,131.716882 L271.636609,153.374556 C271.636609,154.479126 270.741178,155.374556 269.636609,155.374556 C269.53343,155.374556 269.430406,155.366572 269.328459,155.350675 L251.465846,152.565235 C250.49202,152.413379 249.773996,151.574711 249.773996,150.589116 L249.773996,135.198682 C249.773996,134.241643 250.451995,133.418727 251.391355,133.235626 L269.253968,129.753827 C270.338133,129.5425 271.388337,130.250076 271.599664,131.334241 C271.624237,131.460306 271.636609,131.588445 271.636609,131.716882 Z M265.94502,182.431794 L257.482692,202.367789 C257.051103,203.38455 255.876982,203.858926 254.86022,203.427336 C254.765244,203.387021 254.673529,203.339417 254.585898,203.284949 L239.231634,193.74146 C238.394557,193.221172 238.061306,192.168619 238.446409,191.261374 L244.459931,177.094404 C244.833876,176.213445 245.779516,175.720863 246.715745,175.919355 L264.518814,179.693821 C265.599366,179.922911 266.289612,180.984585 266.060522,182.065136 C266.033883,182.190781 265.995204,182.313567 265.94502,182.431794 Z M241.291741,226.837663 L225.977453,242.151952 C225.196404,242.933 223.930074,242.933 223.149026,242.151952 C223.076067,242.078993 223.008864,242.000498 222.948018,241.91717 L212.286846,227.316792 C211.705625,226.520815 211.790933,225.420067 212.487854,224.723146 L223.370535,213.840465 C224.047264,213.163737 225.10857,213.061265 225.90227,213.596021 L240.995049,223.764792 C241.911101,224.381982 242.153375,225.62492 241.536185,226.540971 C241.464419,226.647488 241.38256,226.746844 241.291741,226.837663 Z M201.519425,258.651463 L181.438779,266.76457 C180.41464,267.178349 179.248977,266.683555 178.835198,265.659416 C178.796547,265.56375 178.765356,265.465237 178.741906,265.364758 L174.633068,247.759388 C174.409064,246.799586 174.917687,245.819675 175.831515,245.450465 L190.101278,239.685106 C190.988629,239.326593 192.005605,239.646953 192.527264,240.449322 L202.446985,255.706943 C203.049059,256.633 202.78642,257.871794 201.860364,258.473868 C201.752683,258.543877 201.63851,258.603349 201.519425,258.651463 Z M152.783118,272.554585 L131.125444,272.554585 C130.020874,272.554585 129.125444,271.659155 129.125444,270.554585 C129.125444,270.451406 129.133428,270.348382 129.149325,270.246435 L131.934765,252.383823 C132.086621,251.409997 132.925289,250.691972 133.910884,250.691972 L149.301318,250.691972 C150.258357,250.691972 151.081273,251.369971 151.264374,252.309331 L154.746173,270.171944 C154.9575,271.25611 154.249924,272.306314 153.165759,272.51764 C153.039694,272.542213 152.911555,272.554585 152.783118,272.554585 Z M102.228158,266.83118 L82.292164,258.368852 C81.2754024,257.937262 80.8010269,256.763142 81.2326166,255.74638 C81.2729317,255.651404 81.3205361,255.559689 81.3750034,255.472058 L90.9184931,240.117794 C91.4387808,239.280717 92.4913334,238.947466 93.3985782,239.332569 L107.565548,245.346091 C108.446507,245.720036 108.939089,246.665675 108.740598,247.601904 L104.966132,265.404974 C104.737042,266.485525 103.675368,267.175771 102.594816,266.946681 C102.469172,266.920043 102.346385,266.881364 102.228158,266.83118 Z M57.9578907,242.087295 L42.6436024,226.773007 C41.8625539,225.991958 41.8625539,224.725628 42.6436024,223.94458 C42.7165609,223.871621 42.7950557,223.804418 42.878384,223.743572 L57.4787621,213.0824 C58.274739,212.501179 59.3754869,212.586487 60.0724076,213.283408 L70.9550885,224.166089 C71.6318173,224.842818 71.7342885,225.904124 71.1995325,226.697824 L61.0307619,241.790603 C60.4135717,242.706654 59.1706338,242.948929 58.2545825,242.331739 C58.1480657,242.259973 58.0487096,242.178114 57.9578907,242.087295 Z M26.48158,202.283619 L18.0192526,182.347625 C17.5876629,181.330864 18.0620384,180.156743 19.0788,179.725153 C19.1737766,179.684838 19.2717305,179.651933 19.3717846,179.626733 L36.9027645,175.211264 C37.8585107,174.970544 38.8471493,175.461988 39.2322519,176.369232 L45.2457739,190.536202 C45.6197188,191.417162 45.3171561,192.439574 44.5240137,192.975157 L29.4418393,203.159649 C28.5264316,203.777794 27.283242,203.536814 26.6650975,202.621407 C26.5932208,202.514965 26.5317645,202.401847 26.48158,202.283619 L26.48158,202.283619 Z M12.3633913,153.283118 L12.3633913,131.625444 C12.3633913,130.520874 13.2588218,129.625444 14.3633913,129.625444 C14.4665701,129.625444 14.5695942,129.633428 14.6715409,129.649325 L32.5341539,132.434765 C33.5079799,132.586621 34.2260042,133.425289 34.2260042,134.410884 L34.2260042,149.801318 L34.2260042,149.801318 C34.2260042,150.758357 33.5480053,151.581273 32.6086451,151.764374 L14.7460321,155.246173 L14.7460321,155.246173 C13.6618666,155.4575 12.6116627,154.749924 12.400336,153.665759 C12.3757633,153.539694 12.3633913,153.411555 12.3633913,153.283118 Z M18.0549803,102.568206 L26.5173078,82.6322114 C26.9488975,81.6154498 28.1230182,81.1410742 29.1397798,81.5726639 C29.2347564,81.6129791 29.3264708,81.6605835 29.4141017,81.7150507 L44.7683657,91.2585404 C45.6054426,91.7788282 45.9386937,92.8313808 45.5535911,93.7386256 L39.5400692,107.905596 C39.1661242,108.786555 38.2204844,109.279137 37.2842554,109.080645 L19.481186,105.306179 C18.4006344,105.077089 17.7103885,104.015415 17.9394784,102.934864 C17.9661166,102.809219 18.0047958,102.686433 18.0549803,102.568206 Z M42.708259,58.1623368 L58.0225473,42.8480485 C58.8035959,42.0669999 60.0699259,42.0669999 60.8509744,42.8480485 C60.9239329,42.9210069 60.9911361,42.9995018 61.0519823,43.0828301 L71.7131537,57.6832081 L71.7131537,57.6832081 C72.2943747,58.4791851 72.2090666,59.5799329 71.5121459,60.2768537 L60.629465,71.1595345 L60.629465,71.1595345 C59.9527362,71.8362633 58.8914298,71.9387346 58.0977297,71.4039786 L43.0049508,61.235208 C42.0888995,60.6180177 41.8466247,59.3750799 42.463815,58.4590286 C42.5355807,58.3525118 42.6174401,58.2531557 42.708259,58.1623368 Z M82.4805751,26.3485372 L102.561221,18.2354297 C103.58536,17.8216506 104.751023,18.3164452 105.164802,19.3405842 C105.203453,19.4362499 105.234644,19.5347632 105.258094,19.6352418 L109.366932,37.2406122 L109.366932,37.2406122 C109.590936,38.200414 109.082313,39.1803252 108.168485,39.5495355 L93.8987225,45.3148939 C93.0113713,45.673407 91.9943949,45.3530468 91.4727359,44.550678 L81.5530149,29.2930568 L81.5530149,29.2930568 C80.9509407,28.3670004 81.2135801,27.1282058 82.1396364,26.5261315 C82.2473166,26.4561234 82.3614901,26.3966507 82.4805751,26.3485372 Z" id="path-12"></path>
        <filter x="-1.9%" y="-1.9%" width="103.9%" height="103.8%" filterUnits="objectBoundingBox" id="filter-13">
            <feGaussianBlur stdDeviation="1" in="SourceGraphic"></feGaussianBlur>
        </filter>
        <filter x="-2.3%" y="-2.3%" width="104.6%" height="104.6%" filterUnits="objectBoundingBox" id="filter-14">
            <feMorphology radius="0.5" operator="dilate" in="SourceAlpha" result="shadowSpreadOuter1"></feMorphology>
            <feOffset dx="0" dy="0" in="shadowSpreadOuter1" result="shadowOffsetOuter1"></feOffset>
            <feGaussianBlur stdDeviation="0.5" in="shadowOffsetOuter1" result="shadowBlurOuter1"></feGaussianBlur>
            <feColorMatrix values="0 0 0 0 0.356862745   0 0 0 0 0.968627451   0 0 0 0 0.968627451  0 0 0 1 0" type="matrix" in="shadowBlurOuter1"></feColorMatrix>
        </filter>
        <ellipse id="path-15" cx="142" cy="142.5" rx="40.3056769" ry="40.4475983"></ellipse>
        <filter x="-19.8%" y="-19.8%" width="139.7%" height="139.6%" filterUnits="objectBoundingBox" id="filter-16">
            <feGaussianBlur stdDeviation="1" in="SourceGraphic"></feGaussianBlur>
        </filter>
        <filter x="-27.9%" y="-27.8%" width="155.8%" height="155.6%" filterUnits="objectBoundingBox" id="filter-17">
            <feMorphology radius="1.5" operator="dilate" in="SourceAlpha" result="shadowSpreadOuter1"></feMorphology>
            <feOffset dx="0" dy="0" in="shadowSpreadOuter1" result="shadowOffsetOuter1"></feOffset>
            <feGaussianBlur stdDeviation="5" in="shadowOffsetOuter1" result="shadowBlurOuter1"></feGaussianBlur>
            <feColorMatrix values="0 0 0 0 0.356862745   0 0 0 0 0.968627451   0 0 0 0 0.968627451  0 0 0 1 0" type="matrix" in="shadowBlurOuter1"></feColorMatrix>
        </filter>
        <path d="M132.755062,87.4734872 C130.259961,87.4734872 128.237282,85.4436865 128.237282,82.9398004 C128.237282,80.4359143 130.259961,78.4061135 132.755062,78.4061135 C135.250162,78.4061135 137.272841,80.4359143 137.272841,82.9398004 C137.272841,85.4436865 135.250162,87.4734872 132.755062,87.4734872 Z M154.115567,88.2872544 C151.818815,87.3123409 150.750035,84.653576 151.728382,82.3487367 C152.706728,80.0438974 155.36172,78.9657795 157.658472,79.9406929 C159.955224,80.9156064 161.024003,83.5743713 160.045657,85.8792106 C159.067311,88.1840499 156.412319,89.2621678 154.115567,88.2872544 Z M173.604601,97.2879558 C171.840298,95.5236533 171.845334,92.6581176 173.615849,90.8876028 C175.386364,89.117088 178.2519,89.1120519 180.016202,90.8763544 C181.780505,92.6406569 181.775469,95.5061925 180.004954,97.2767074 C178.234439,99.0472222 175.368903,99.0522583 173.604601,97.2879558 Z M188.136252,113.025128 C187.201571,110.711711 188.325861,108.07594 190.647423,107.137968 C192.968986,106.199995 195.608693,107.315014 196.543374,109.62843 C197.478056,111.941847 196.353766,114.577619 194.032203,115.515591 C191.71064,116.453564 189.070933,115.338545 188.136252,113.025128 Z M195.577355,133.222509 C195.577355,130.727408 197.607156,128.70473 200.111042,128.70473 C202.614928,128.70473 204.644729,130.727408 204.644729,133.222509 C204.644729,135.717609 202.614928,137.740288 200.111042,137.740288 C197.607156,137.740288 195.577355,135.717609 195.577355,133.222509 Z M194.767708,154.664465 C195.742621,152.367713 198.401386,151.298933 200.706225,152.27728 C203.011065,153.255626 204.089183,155.910618 203.114269,158.20737 C202.139356,160.504122 199.480591,161.572901 197.175751,160.594555 C194.870912,159.616209 193.792794,156.961217 194.767708,154.664465 Z M185.801982,174.227173 C187.566285,172.46287 190.431821,172.467906 192.202335,174.238421 C193.97285,176.008936 193.977886,178.874472 192.213584,180.638774 C190.449281,182.403077 187.583746,182.398041 185.813231,180.627526 C184.042716,178.857011 184.03768,175.991475 185.801982,174.227173 Z M170.125317,188.813505 C172.438734,187.878824 175.074506,189.003113 176.012478,191.324676 C176.95045,193.646239 175.835432,196.285946 173.522015,197.220627 C171.208598,198.155308 168.572827,197.031019 167.634854,194.709456 C166.696882,192.387893 167.8119,189.748186 170.125317,188.813505 Z M150.004764,196.281971 C152.499864,196.281971 154.522543,198.311772 154.522543,200.815658 C154.522543,203.319544 152.499864,205.349345 150.004764,205.349345 C147.509663,205.349345 145.486985,203.319544 145.486985,200.815658 C145.486985,198.311772 147.509663,196.281971 150.004764,196.281971 Z M128.644259,195.468204 C130.941011,196.443118 132.00979,199.101883 131.031444,201.406722 C130.053097,203.711561 127.398106,204.789679 125.101353,203.814766 C122.804601,202.839852 121.735822,200.181087 122.714168,197.876248 C123.692515,195.571409 126.347506,194.493291 128.644259,195.468204 Z M109.155224,186.467503 C110.919527,188.231805 110.914491,191.097341 109.143976,192.867856 C107.373461,194.638371 104.507926,194.643407 102.743623,192.879104 C100.97932,191.114802 100.984357,188.249266 102.754871,186.478751 C104.525386,184.708236 107.390922,184.7032 109.155224,186.467503 Z M94.5932929,170.657227 C95.5682064,172.953979 94.4900884,175.60897 92.1852491,176.587317 C89.8804098,177.565663 87.2216449,176.496884 86.2467314,174.200132 C85.271818,171.90338 86.3499359,169.248388 88.6547752,168.270041 C90.9596145,167.291695 93.6183795,168.360474 94.5932929,170.657227 Z M87.1824704,150.53295 C87.1824704,153.02805 85.1526696,155.050729 82.6487835,155.050729 C80.1448974,155.050729 78.1150967,153.02805 78.1150967,150.53295 C78.1150967,148.037849 80.1448974,146.01517 82.6487835,146.01517 C85.1526696,146.01517 87.1824704,148.037849 87.1824704,150.53295 Z M87.9921176,129.090994 C87.0172042,131.387746 84.3584393,132.456525 82.0536,131.478179 C79.7487606,130.499833 78.6706427,127.844841 79.6455562,125.548089 C80.6204696,123.251337 83.2792345,122.182557 85.5840739,123.160904 C87.8889132,124.13925 88.9670311,126.794242 87.9921176,129.090994 Z M96.957843,109.528286 C95.1935405,111.292588 92.3280048,111.287552 90.55749,109.517037 C88.7869751,107.746523 88.7819391,104.880987 90.5462416,103.116684 C92.3105441,101.352382 95.1760797,101.357418 96.9465945,103.127933 C98.7171094,104.898448 98.7221455,107.763983 96.957843,109.528286 Z M112.634508,94.9419537 C110.321091,95.8766348 107.685319,94.7523451 106.747347,92.4307824 C105.809375,90.1092196 106.924393,87.4695124 109.23781,86.5348313 C111.551227,85.6001501 114.186999,86.7244399 115.124971,89.0460026 C116.062943,91.3675654 114.947925,94.0072726 112.634508,94.9419537 Z" id="path-18"></path>
        <filter x="-2.4%" y="-2.4%" width="104.7%" height="104.7%" filterUnits="objectBoundingBox" id="filter-19">
            <feMorphology radius="0.5" operator="dilate" in="SourceAlpha" result="shadowSpreadOuter1"></feMorphology>
            <feOffset dx="0" dy="0" in="shadowSpreadOuter1" result="shadowOffsetOuter1"></feOffset>
            <feGaussianBlur stdDeviation="0.5" in="shadowOffsetOuter1" result="shadowBlurOuter1"></feGaussianBlur>
            <feColorMatrix values="0 0 0 0 0.356862745   0 0 0 0 0.968627451   0 0 0 0 0.968627451  0 0 0 1 0" type="matrix" in="shadowBlurOuter1"></feColorMatrix>
        </filter>
    </defs>
    <g id="Page-1" stroke="none" stroke-width="1" fill="none" fill-rule="evenodd">
        <g id="earth" transform="translate(-3905.000000, -1198.000000)">
            <g id="allocationviz" transform="translate(3819.000000, 1032.000000)">
                <g id="viz">
                    <rect id="Rectangle" fill-opacity="0.1" fill="#FFFFFF" opacity="0" x="0" y="0" width="1000" height="1000"></rect>
                    <g id="driver1" transform="translate(197.000000, 254.000000)">
                        <polyline id="Path-5" stroke="#3DC057" stroke-width="2" stroke-linecap="square" points="17.6526725 14.7869227 84.4687361 14.7869227 287.713131 218.450167"></polyline>
                        <g id="navigation" transform="translate(14.721553, 14.067396) rotate(-89.000000) translate(-14.721553, -14.067396) translate(1.221553, 0.567396)">
                            <ellipse id="Oval" fill-opacity="0.8" fill="#AD04D5" filter="url(#filter-1)" cx="13.5487685" cy="13.4592413" rx="13.3714286" ry="13.3882163"></ellipse>
                            <polygon id="Shape" fill="#FFFFFF" fill-rule="nonzero" points="8.17588536 7.08272744 13.5778557 22.20998 18.9854698 7.08272744 13.5778557 9.2894205"></polygon>
                        </g>
                    </g>
                    <g id="driver1-copy-6" transform="translate(744.500000, 710.000000) scale(-1, -1) translate(-744.500000, -710.000000) translate(600.000000, 601.000000)">
                        <polyline id="Path-5" stroke="#3DC057" stroke-width="2" stroke-linecap="square" points="18.8782842 13.5601365 85.6385882 13.5601365 288.713371 217.449556"></polyline>
                        <g id="navigation" transform="translate(14.694139, 14.072301) rotate(-89.000000) translate(-14.694139, -14.072301) translate(1.194139, 0.572301)">
                            <ellipse id="Oval" fill-opacity="0.8" fill="#AD04D5" filter="url(#filter-2)" cx="13.5374617" cy="13.4741883" rx="13.3602698" ry="13.4030844"></ellipse>
                            <polygon id="Shape" fill="#FFFFFF" fill-rule="nonzero" points="8.16906237 7.09059307 13.5665246 22.234645 18.9696259 7.09059307 13.5665246 9.29973675"></polygon>
                        </g>
                    </g>
                    <g id="driver1-copy-4" transform="translate(726.500000, 407.500000) scale(-1, 1) translate(-726.500000, -407.500000) translate(536.000000, 304.000000)">
                        <polyline id="Path-5" stroke="#3DC057" stroke-width="2" stroke-linecap="square" points="17.6478808 14.5740704 85.3363957 14.5740704 380.371932 206.858091"></polyline>
                        <g id="navigation" transform="translate(15.197947, 14.602852) rotate(-89.000000) translate(-15.197947, -14.602852) translate(1.197947, 0.602852)">
                            <ellipse id="Oval" fill-opacity="0.8" fill="#AD04D5" filter="url(#filter-3)" cx="13.6514658" cy="13.7005988" rx="13.6514658" ry="13.7005988"></ellipse>
                            <polygon id="Shape" fill="#FFFFFF" fill-rule="nonzero" points="8.68729642 7.47305389 14.2690712 22.4191617 19.8566775 7.47305389 14.2690712 9.65332241"></polygon>
                        </g>
                    </g>
                    <g id="driver1-copy-3" transform="translate(406.500000, 650.000000) scale(1, -1) translate(-406.500000, -650.000000) translate(289.000000, 519.000000)">
                        <polyline id="Path-5" stroke="#3DC057" stroke-width="2" stroke-linecap="square" points="16.3894737 13.8867925 83.2008928 13.8867925 235 262"></polyline>
                        <g id="navigation" transform="translate(13.756212, 14.047373) rotate(-89.000000) translate(-13.756212, -14.047373) translate(0.256212, 0.547373)">
                            <ellipse id="Oval" fill-opacity="0.8" fill="#AD04D5" filter="url(#filter-4)" cx="13.5566917" cy="13.433558" rx="13.3792481" ry="13.3626685"></ellipse>
                            <polygon id="Shape" fill="#FFFFFF" fill-rule="nonzero" points="8.18066658 7.06921194 13.5857959 22.1675981 18.9965724 7.06921194 13.5857959 9.27169412"></polygon>
                        </g>
                    </g>
                    <g id="driver1-copy-2" transform="translate(311.000000, 508.000000) scale(1, -1) translate(-311.000000, -508.000000) translate(86.000000, 494.000000)">
                        <path d="M16.4339607,12.3766211 L449.752813,12.3766211" id="Path-5" stroke="#3DC057" stroke-width="2" stroke-linecap="square"></path>
                        <g id="navigation" transform="translate(15.164052, 14.178370) rotate(-89.000000) translate(-15.164052, -14.178370) translate(1.664052, 0.178370)">
                            <ellipse id="Oval" fill-opacity="0.8" fill="#AD04D5" filter="url(#filter-5)" cx="13.5674822" cy="13.5357143" rx="13.3898974" ry="13.4642857"></ellipse>
                            <polygon id="Shape" fill="#FFFFFF" fill-rule="nonzero" points="9.43008261 7.1011547 14.8395142 22.3143575 20.2545974 7.1011547 14.8395142 9.32038579"></polygon>
                        </g>
                    </g>
                    <g id="driver1-copy" transform="translate(652.000000, 337.000000) scale(-1, 1) translate(-652.000000, -337.000000) translate(546.000000, 180.000000)">
                        <polyline id="Path-5" stroke="#3DC057" stroke-width="2" stroke-linecap="square" points="16.389966 14.5225582 83.1191991 14.5225582 211.804659 313.237925"></polyline>
                        <g id="navigation" transform="translate(15.231294, 14.536833) rotate(-89.000000) translate(-15.231294, -14.536833) translate(1.231294, 0.536833)">
                            <ellipse id="Oval" fill-opacity="0.8" fill="#AD04D5" filter="url(#filter-6)" cx="13.6374269" cy="13.6521739" rx="13.6374269" ry="13.6521739"></ellipse>
                            <polygon id="Shape" fill="#FFFFFF" fill-rule="nonzero" points="8.67836257 7.44664032 14.2543971 22.3399209 19.8362573 7.44664032 14.2543971 9.61920265"></polygon>
                        </g>
                    </g>
                    <g id="driver1-copy-5" transform="translate(665.000000, 513.000000) scale(-1, 1) translate(-665.000000, -513.000000) translate(484.000000, 499.000000)">
                        <polyline id="Path-5" stroke="#3DC057" stroke-width="2" stroke-linecap="square" points="16.4347111 14.8766211 83.3461173 14.8766211 361.957244 14.8766211"></polyline>
                        <g id="navigation" transform="translate(15.164722, 14.178994) rotate(-89.000000) translate(-15.164722, -14.178994) translate(1.664722, 0.178994)">
                            <ellipse id="Oval" fill-opacity="0.8" fill="#AD04D5" filter="url(#filter-7)" cx="13.5681018" cy="13.5357143" rx="13.3905088" ry="13.4642857"></ellipse>
                            <polygon id="Shape" fill="#FFFFFF" fill-rule="nonzero" points="8.18755186 7.12297021 13.5972305 22.336173 19.0125609 7.12297021 13.5972305 9.3422013"></polygon>
                        </g>
                    </g>
                    <g id="outer-ring" transform="translate(207.000000, 222.000000)">
                        <circle id="Oval-3" stroke-opacity="0.188490716" stroke="#08F565" stroke-width="2" fill="#FFFFFF" stroke-linecap="square" filter="url(#filter-8)" cx="289.757447" cy="291" r="248.510638"></circle>
                        <path d="M303.462599,47.0248124 C302.890588,47.0248124 302.426882,46.5658272 302.426882,45.9996403 C302.426882,45.4334533 302.890588,44.9744681 303.462599,44.9744681 C304.034609,44.9744681 304.498315,45.4334533 304.498315,45.9996403 C304.498315,46.5658272 304.034609,47.0248124 303.462599,47.0248124 Z M340.894287,51.9707611 C340.329319,51.8812789 339.942849,51.3571344 340.031082,50.8000515 C340.119316,50.2429687 340.64884,49.8639034 341.213808,49.9533855 C341.778776,50.0428677 342.165246,50.5670122 342.077012,51.124095 C341.988779,51.6811779 341.459255,52.0602432 340.894287,51.9707611 Z M377.124733,62.516473 C376.580718,62.3397121 376.280574,61.762876 376.454342,61.2280736 C376.62811,60.6932712 377.209987,60.4030213 377.754002,60.5797822 C378.298016,60.7565431 378.59816,61.3333792 378.424392,61.8681816 C378.250624,62.402984 377.668747,62.6932339 377.124733,62.516473 Z M411.320625,78.4227064 C410.806505,78.1719536 410.589104,77.5598986 410.835046,77.0556433 C411.080988,76.551388 411.697139,76.3458836 412.211258,76.5966365 C412.725378,76.8473893 412.942779,77.4594443 412.696837,77.9636996 C412.450896,78.4679549 411.834744,78.6734593 411.320625,78.4227064 Z M442.647336,99.3015869 C442.178772,98.9734952 442.059188,98.3358331 442.380236,97.8773287 C442.701284,97.4188243 443.341391,97.3131039 443.809954,97.6411956 C444.278518,97.9692873 444.398102,98.6069494 444.077054,99.0654538 C443.756006,99.5239582 443.115899,99.6296786 442.647336,99.3015869 Z M470.387863,124.669725 C469.976393,124.272373 469.957342,123.624571 470.34531,123.222818 C470.733278,122.821066 471.38135,122.817498 471.79282,123.21485 C472.20429,123.612201 472.223342,124.260004 471.835374,124.661756 C471.447406,125.063509 470.799333,125.067077 470.387863,124.669725 Z M493.892111,153.93244 C493.547866,153.475612 493.6296,152.833399 494.074668,152.498016 C494.519736,152.162633 495.159601,152.261083 495.503845,152.717911 C495.84809,153.174739 495.766356,153.816952 495.321288,154.152335 C494.876219,154.487718 494.236355,154.389268 493.892111,153.93244 Z M512.617248,186.41953 C512.339932,185.919238 512.509454,185.29509 512.995887,185.025456 C513.48232,184.755822 514.101461,184.942807 514.378777,185.443098 C514.656093,185.94339 514.48657,186.567538 514.000138,186.837172 C513.513705,187.106806 512.894564,186.919821 512.617248,186.41953 Z M526.106112,221.339534 C525.910473,220.80202 526.174503,220.212456 526.69584,220.022705 C527.217176,219.832954 527.798399,220.114872 527.994038,220.652386 C528.189677,221.189899 527.925648,221.779464 527.404311,221.969215 C526.882975,222.158966 526.301752,221.877048 526.106112,221.339534 Z M534.053146,257.888309 C533.944001,257.326808 534.295751,256.78605 534.838801,256.680492 C535.381851,256.574934 535.910559,256.944548 536.019704,257.506049 C536.128848,258.06755 535.777099,258.608309 535.234049,258.713867 C534.690999,258.819425 534.162291,258.44981 534.053146,257.888309 Z M536.272313,295.209211 C536.25235,294.637549 536.682786,294.158529 537.233718,294.13929 C537.784649,294.120051 538.247451,294.567879 538.267414,295.13954 C538.287377,295.711202 537.856941,296.190222 537.306009,296.209461 C536.755078,296.2287 536.292276,295.780873 536.272313,295.209211 Z M532.698394,332.428839 C532.768104,331.861092 533.269092,331.455417 533.817381,331.522739 C534.365671,331.59006 534.753635,332.104885 534.683925,332.672632 C534.614214,333.240378 534.113226,333.646053 533.564937,333.578732 C533.016648,333.51141 532.628683,332.996586 532.698394,332.428839 Z M523.420609,368.689253 C523.568656,368.136733 524.122436,367.805054 524.657511,367.948427 C525.192586,368.0918 525.506334,368.655932 525.358287,369.208452 C525.210239,369.760972 524.656459,370.09265 524.121384,369.949278 C523.586309,369.805905 523.272561,369.241772 523.420609,368.689253 Z M508.665213,403.106533 C508.897871,402.583975 509.497809,402.343496 510.005213,402.569407 C510.512617,402.795318 510.735343,403.402071 510.502686,403.924628 C510.270028,404.447186 509.67009,404.687666 509.162686,404.461755 C508.655282,404.235844 508.432556,403.62909 508.665213,403.106533 Z M488.776705,434.891866 C489.088244,434.412137 489.719306,434.269048 490.186222,434.572267 C490.653138,434.875485 490.779095,435.510189 490.467556,435.989917 C490.156017,436.469646 489.524955,436.612735 489.058039,436.309516 C488.591123,436.006298 488.465166,435.371594 488.776705,434.891866 Z M464.221094,463.300678 C464.603844,462.875592 465.250262,462.833651 465.66491,463.207002 C466.079558,463.580352 466.105416,464.227613 465.722666,464.6527 C465.339917,465.077787 464.693498,465.119727 464.278851,464.746376 C463.864203,464.373026 463.838344,463.725765 464.221094,463.300678 Z M435.560261,487.678579 C435.998446,487.310898 436.644973,487.36 437.004319,487.788252 C437.363665,488.216504 437.299753,488.861735 436.861568,489.229416 C436.423382,489.597097 435.776855,489.547995 435.417509,489.119743 C435.058164,488.691492 435.122076,488.046261 435.560261,487.678579 Z M403.490879,507.430139 C403.981188,507.135532 404.612597,507.28604 404.901171,507.766308 C405.189746,508.246576 405.026208,508.874737 404.535899,509.169344 C404.04559,509.463951 403.414181,509.313443 403.125607,508.833175 C402.837033,508.352907 403.000571,507.724746 403.490879,507.430139 Z M368.753063,522.105793 C369.283422,521.891514 369.883927,522.139968 370.094329,522.66073 C370.30473,523.181492 370.045354,523.77736 369.514995,523.991639 C368.984636,524.205918 368.384131,523.957464 368.17373,523.436702 C367.963328,522.91594 368.222705,522.320072 368.753063,522.105793 Z M332.160966,531.361769 C332.718316,531.233095 333.272847,531.573668 333.399545,532.122461 C333.526244,532.671253 333.177133,533.220449 332.619783,533.349123 C332.062433,533.477797 331.507902,533.137224 331.381203,532.588432 C331.254505,532.039639 331.603616,531.490444 332.160966,531.361769 Z M294.57228,534.981323 C295.142897,534.941421 295.637432,535.366105 295.676855,535.929881 C295.716278,536.493657 295.28566,536.983034 294.715043,537.022935 C294.144426,537.062837 293.649891,536.638153 293.610468,536.074377 C293.571045,535.510601 294.001663,535.021224 294.57228,534.981323 Z M256.845552,532.875483 C257.416169,532.915384 257.846787,533.404761 257.807364,533.968537 C257.767941,534.532312 257.273406,534.956997 256.702789,534.917095 C256.132172,534.877194 255.701554,534.387817 255.740977,533.824041 C255.7804,533.260265 256.274935,532.835581 256.845552,532.875483 Z M219.898939,525.093608 C220.456289,525.222282 220.805401,525.771477 220.678702,526.32027 C220.552003,526.869063 219.997472,527.209636 219.440122,527.080961 C218.882773,526.952287 218.533661,526.403092 218.66036,525.854299 C218.787058,525.305506 219.341589,524.964933 219.898939,525.093608 Z M184.584879,511.82223 C185.115238,512.036509 185.374615,512.632377 185.164213,513.15314 C184.953812,513.673902 184.353307,513.922356 183.822948,513.708077 C183.292589,513.493798 183.033213,512.897929 183.243614,512.377167 C183.454016,511.856405 184.054521,511.607951 184.584879,511.82223 Z M151.731117,493.372214 C152.221425,493.666821 152.384964,494.294981 152.096389,494.775249 C151.807815,495.255518 151.176406,495.406025 150.686097,495.111418 C150.195789,494.816811 150.032251,494.188651 150.320825,493.708383 C150.609399,493.228115 151.240808,493.077607 151.731117,493.372214 Z M122.107649,470.175797 C122.545834,470.543478 122.609746,471.188709 122.2504,471.616961 C121.891054,472.045212 121.244527,472.094315 120.806342,471.726633 C120.368157,471.358952 120.304245,470.713721 120.66359,470.285469 C121.022936,469.857218 121.669463,469.808115 122.107649,470.175797 Z M96.3971757,442.763289 C96.7799254,443.188375 96.7540668,443.835636 96.3394191,444.208987 C95.9247713,444.582337 95.278353,444.540397 94.8956034,444.115311 C94.5128537,443.690224 94.5387122,443.042963 94.95336,442.669612 C95.3680078,442.296262 96.0144261,442.338202 96.3971757,442.763289 Z M75.2271701,411.801249 C75.5387092,412.280977 75.4127517,412.915681 74.945836,413.218899 C74.4789204,413.522118 73.847858,413.379028 73.5363188,412.8993 C73.2247797,412.419572 73.3507372,411.784868 73.8176529,411.48165 C74.2845686,411.178431 74.9156309,411.32152 75.2271701,411.801249 Z M59.0802874,378.003913 C59.312945,378.52647 59.0902189,379.133223 58.5828149,379.359134 C58.0754108,379.585045 57.4754723,379.344566 57.2428148,378.822008 C57.0101572,378.299451 57.2328832,377.692697 57.7402873,377.466786 C58.2476913,377.240875 58.8476298,377.481355 59.0802874,378.003913 Z M48.3348339,342.163013 C48.4828811,342.715533 48.169133,343.279665 47.634058,343.423038 C47.098983,343.566411 46.545203,343.234732 46.3971559,342.682212 C46.2491087,342.129693 46.5628567,341.565561 47.0979318,341.422188 C47.6330068,341.278815 48.1867867,341.610494 48.3348339,342.163013 Z M43.2404434,305.100733 C43.3101539,305.66848 42.9221892,306.183304 42.3738999,306.250626 C41.8256106,306.317947 41.3246227,305.912272 41.2549122,305.344526 C41.1852016,304.776779 41.5731664,304.261954 42.1214557,304.194633 C42.669745,304.127311 43.1707329,304.532986 43.2404434,305.100733 Z M43.9229226,267.719786 C43.9029598,268.291448 43.4401581,268.739275 42.8892261,268.720036 C42.3382941,268.700797 41.9078586,268.221777 41.9278215,267.650116 C41.9477844,267.078454 42.4105861,266.630626 42.961518,266.649865 C43.51245,266.669104 43.9428855,267.148124 43.9229226,267.719786 Z M50.3612179,230.881894 C50.2520732,231.443395 49.723365,231.81301 49.1803152,231.707452 C48.6372653,231.601894 48.2855157,231.061135 48.3946604,230.499634 C48.5038051,229.938133 49.0325133,229.568519 49.5755632,229.674077 C50.118613,229.779635 50.4703627,230.320394 50.3612179,230.881894 Z M62.4049818,195.449137 C62.2093428,195.986651 61.6281194,196.268568 61.106783,196.078817 C60.5854467,195.889067 60.3214169,195.299502 60.517056,194.761988 C60.7126951,194.224474 61.2939185,193.942556 61.8152548,194.132307 C62.3365911,194.322058 62.6006209,194.911623 62.4049818,195.449137 Z M79.7721624,162.251999 C79.4948462,162.75229 78.8757054,162.939275 78.3892726,162.669641 C77.9028398,162.400007 77.7333172,161.775859 78.0106333,161.275567 C78.2879495,160.775276 78.9070903,160.588291 79.3935231,160.857925 C79.8799559,161.127559 80.0494785,161.751707 79.7721624,162.251999 Z M102.066483,132.054242 C101.722239,132.51107 101.082375,132.60952 100.637306,132.274137 C100.192238,131.938754 100.110504,131.29654 100.454749,130.839713 C100.798993,130.382885 101.438858,130.284434 101.883926,130.619817 C102.328994,130.9552 102.410728,131.597414 102.066483,132.054242 Z M128.746549,105.593666 C128.33508,105.991018 127.687007,105.98745 127.299039,105.585697 C126.911071,105.183945 126.930123,104.536142 127.341592,104.138791 C127.753062,103.741439 128.401135,103.745007 128.789103,104.146759 C129.177071,104.548512 129.158019,105.196314 128.746549,105.593666 Z M159.195488,83.4747938 C158.726925,83.8028855 158.086818,83.6971651 157.76577,83.2386607 C157.444722,82.7801563 157.564306,82.1424942 158.03287,81.8144025 C158.501433,81.4863108 159.14154,81.5920312 159.462588,82.0505356 C159.783636,82.50904 159.664052,83.1467021 159.195488,83.4747938 Z M192.699719,66.2161459 C192.1856,66.4668987 191.569448,66.2613944 191.323506,65.7571391 C191.077565,65.2528838 191.294966,64.6408288 191.809085,64.3900759 C192.323205,64.1393231 192.939356,64.3448274 193.185298,64.8490827 C193.43124,65.353338 193.213839,65.965393 192.699719,66.2161459 Z M228.490553,54.2162564 C227.946539,54.3930173 227.364662,54.1027674 227.190894,53.567965 C227.017126,53.0331626 227.31727,52.4563266 227.861284,52.2795656 C228.405299,52.1028047 228.987176,52.3930547 229.160944,52.927857 C229.334711,53.4626594 229.034567,54.0394955 228.490553,54.2162564 Z M265.697059,47.7714385 C265.132091,47.8609206 264.602567,47.4818553 264.514334,46.9247725 C264.426101,46.3676896 264.81257,45.8435451 265.377538,45.7540629 C265.942506,45.6645808 266.472031,46.0436461 266.560264,46.600729 C266.648497,47.1578118 266.262027,47.6819563 265.697059,47.7714385 Z" id="Oval-5" fill-opacity="0.3" fill="#08911E"></path>
                        <path d="M281.674931,30.0638298 L281.674931,41.277703 M335.32722,34.1944238 L332.995725,45.163247 M385.964069,48.0164517 L381.582459,58.3388764 M433.64174,72.9684102 L427.209727,82.1542774 M474.045625,104.749824 L466.397782,112.951131 M507.020961,146.36188 L497.948747,152.953229 M532.963061,193.050255 L522.718678,197.611348 M547.833274,244.973452 L536.789765,246.92072 M551.901505,299.62985 L540.694463,299.238492 M545.12147,351.827593 L534.152646,349.496098 M527.64092,402.931205 L517.561958,398.015366 M500.306895,447.300054 L491.470242,440.396105 M464.270555,486.141828 L456.913592,477.67861 M420.875294,517.96469 L415.4387,508.156815 M373.947166,539.398897 L370.668547,528.675017 M321.614722,550.509311 L320.442553,539.356869 M267.819853,551.832309 L268.992022,540.679867 M214.861498,541.296885 L218.326775,530.631858 M167.243716,521.465499 L172.159554,511.386536 M128.26482,495.840383 L135.16877,487.00373 M91.3956473,459.006843 L99.596955,451.359 M60.7384506,415.101842 L70.3506161,409.32627 M40.7933457,366.32464 L51.2623982,362.305947 M30.2363568,313.468222 L41.279866,311.520953 M31.5166379,259.378517 L42.6878389,260.355871 M40.668844,214.898044 L51.3927242,218.176664 M62.0284103,165.165912 L72.0200445,170.256904 M91.7832593,121.832725 L100.619912,128.736675 M131.663738,84.7116057 L138.871877,93.301931 M177.01039,55.3715213 L182.274984,65.2727837 M227.910572,36.9215232 L231.001534,47.70099" id="Path-4" stroke="#2FE557" stroke-linecap="square"></path>
                        <path d="M281.674931,30.0638298 L281.674931,41.277703 M335.32722,34.1944238 L332.995725,45.163247 M385.964069,48.0164517 L381.582459,58.3388764 M433.64174,72.9684102 L427.209727,82.1542774 M474.045625,104.749824 L466.397782,112.951131 M507.020961,146.36188 L497.948747,152.953229 M532.963061,193.050255 L522.718678,197.611348 M547.833274,244.973452 L536.789765,246.92072 M551.901505,299.62985 L540.694463,299.238492 M545.12147,351.827593 L534.152646,349.496098 M527.64092,402.931205 L517.561958,398.015366 M500.306895,447.300054 L491.470242,440.396105 M464.270555,486.141828 L456.913592,477.67861 M420.875294,517.96469 L415.4387,508.156815 M373.947166,539.398897 L370.668547,528.675017 M321.614722,550.509311 L320.442553,539.356869 M267.819853,551.832309 L268.992022,540.679867 M214.861498,541.296885 L218.326775,530.631858 M167.243716,521.465499 L172.159554,511.386536 M128.26482,495.840383 L135.16877,487.00373 M91.3956473,459.006843 L99.596955,451.359 M60.7384507,415.101842 L70.3506161,409.32627 M40.7933457,366.32464 L51.2623983,362.305947 M30.2363568,313.468222 L41.2798661,311.520953 M31.5166379,259.378517 L42.6878389,260.355871 M40.668844,214.898044 L51.3927242,218.176664 M62.0284103,165.165912 L72.0200445,170.256904 M91.7832593,121.832725 L100.619912,128.736675 M131.663738,84.7116058 L138.871877,93.301931 M177.01039,55.3715213 L182.274984,65.2727837 M227.910572,36.9215233 L231.001534,47.70099" id="Path-4-Copy-2" stroke="#2FE557" stroke-linecap="square" transform="translate(291.000000, 291.000000) rotate(7.000000) translate(-291.000000, -291.000000) "></path>
                        <path d="M282.70358,20.1234016 L282.70358,41.5673773 M338.417339,24.422227 L333.958885,45.3976003 M390.932646,38.7292366 L382.553817,58.4685203 M440.43264,64.5430733 L428.132881,82.1089498 M482.147798,97.2142991 L467.523041,112.89743 M516.386298,140.135498 L499.037758,152.739951 M543.345191,188.393272 L523.755144,197.115322 M558.855062,242.221677 L537.736869,245.945385 M563.073686,298.698194 L541.642774,297.94981 M556.058338,352.502464 L535.082965,348.044011 M537.847973,405.486501 L518.574255,396.086081 M509.439361,451.37315 L492.541277,438.17092 M472.056946,491.462281 L457.988433,475.278307 M426.978867,524.337257 L416.582621,505.581933 M378.194624,546.484745 L371.925013,525.977769 M323.926319,557.944118 L321.684813,536.617615 M268.061535,559.285751 L270.303041,537.959248 M213.07205,548.383036 L219.698603,527.988603 M163.900992,528.00912 L173.301412,508.735402 M123.292995,501.465151 L136.495225,484.567068 M85.1433473,463.578911 L100.826478,448.954155 M53.2730987,418.214667 L71.6541734,407.170203 M32.566043,367.961416 L52.5857189,360.276583 M21.5517524,313.430233 L42.6699458,309.706526 M22.7993461,257.265226 L44.161721,259.134192 M32.3253605,211.124746 L52.8323364,217.394358 M54.4181042,159.878193 L73.5248264,169.613554 M85.254566,115.120455 L102.152649,128.322684 M126.620682,76.7191301 L140.404603,93.1461685 M173.697607,46.3770464 L183.764943,65.3109531 M226.536422,27.2727773 L232.447183,47.8860497" id="Path-4-Copy" stroke="#2FE557" stroke-linecap="square" transform="translate(292.242478, 289.757494) rotate(2.000000) translate(-292.242478, -289.757494) "></path>
                    </g>
                    <g id="arc-reactor" transform="translate(357.000000, 369.000000)">
                        <g id="Oval-2" filter="url(#filter-10)">
                            <use fill="black" fill-opacity="1" filter="url(#filter-11)" xlink:href="#path-9"></use>
                            <use fill="#FFFFFF" fill-rule="evenodd" xlink:href="#path-9"></use>
                        </g>
                        <g id="Rectangle-2" filter="url(#filter-13)">
                            <use fill="black" fill-opacity="1" filter="url(#filter-14)" xlink:href="#path-12"></use>
                            <use fill="#5BF7F7" fill-rule="evenodd" xlink:href="#path-12"></use>
                        </g>
                        <g id="Oval-6" filter="url(#filter-16)">
                            <use fill="black" fill-opacity="1" filter="url(#filter-17)" xlink:href="#path-15"></use>
                            <use fill="#5BF7F7" fill-rule="evenodd" xlink:href="#path-15"></use>
                        </g>
                        <path d="M127.965872,153.744953 C131.261547,157.891262 136.323632,160.545852 142,160.545852 L142,160.545852 C146.148313,160.545852 149.968553,159.128103 153.011041,156.746477 M159.03832,148.215064 C159.650574,146.388269 159.982533,144.431074 159.982533,142.395622 C159.982533,135.329535 155.981976,129.206542 150.142243,126.208177 M139.263877,124.454148 C130.630956,125.784307 124.017467,133.310431 124.017467,142.395622" id="Oval-7" stroke="#FFFFFF" stroke-width="5" stroke-linecap="square"></path>
                        <g id="Oval-9">
                            <use fill="black" fill-opacity="1" filter="url(#filter-19)" xlink:href="#path-18"></use>
                            <use fill="#5BF7F7" fill-rule="evenodd" xlink:href="#path-18"></use>
                        </g>
                    </g>
                </g>
            </g>
        </g>
    </g>
</svg>