<?xml version="1.0" encoding="UTF-8"?>
<svg width="195px" height="100px" viewBox="0 0 195 100" version="1.1" xmlns="http://www.w3.org/2000/svg" xmlns:xlink="http://www.w3.org/1999/xlink">
    <!-- Generator: Sketch 46.2 (44496) - http://www.bohemiancoding.com/sketch -->
    <title>Group 4</title>
    <desc>Created with Sketch.</desc>
    <defs></defs>
    <g id="Page-1" stroke="none" stroke-width="1" fill="none" fill-rule="evenodd">
        <g id="Home-Page-Copy-3" transform="translate(-1085.000000, -2566.000000)">
            <g id="completed-booking" transform="translate(1025.000000, 2540.000000)">
                <g id="Group-4" transform="translate(60.000000, 26.000000)">
                    <polygon id="Path-7" stroke="#8CC63F" stroke-linecap="square" points="6.40607864 5.08764906 33.8189009 49.1362616 15.2404696 92.7531762 56.8684899 83.1735923 106.673076 90.3839765 145.911339 75.5572063 181.295156 87.6807248 191.368109 54.3371945 189.111974 14.5027766 138.851528 38.5373258 116.139198 5.31417456 92.0940637 49.5100449 58.8568087 16.6341986 55.0787661 80.6176333 136.34106 39.7220409 55.8685762 14.7037476"></polygon>
                    <circle id="Oval" fill="#8CC63F" cx="5.50458716" cy="5.50458716" r="5.50458716"></circle>
                    <circle id="Oval-Copy" fill="#8CC63F" cx="58.7155963" cy="16.5137615" r="5.50458716"></circle>
                    <circle id="Oval-Copy-7" fill="#8CC63F" cx="33.0275229" cy="48.6238532" r="5.50458716"></circle>
                    <circle id="Oval-Copy-8" fill="#8CC63F" cx="14.6788991" cy="94.4954128" r="5.50458716"></circle>
                    <circle id="Oval-Copy-11" fill="#8CC63F" cx="55.0458716" cy="82.5688073" r="5.50458716"></circle>
                    <circle id="Oval-Copy-12" fill="#8CC63F" cx="107.33945" cy="90.8256881" r="5.50458716"></circle>
                    <circle id="Oval-Copy-13" fill="#8CC63F" cx="144.954128" cy="77.0642202" r="5.50458716"></circle>
                    <circle id="Oval-Copy-14" fill="#8CC63F" cx="180.733945" cy="88.0733945" r="5.50458716"></circle>
                    <circle id="Oval-Copy-2" fill="#8CC63F" cx="115.59633" cy="5.50458716" r="5.50458716"></circle>
                    <circle id="Oval-Copy-3" fill="#8CC63F" cx="188.073394" cy="14.6788991" r="5.50458716"></circle>
                    <circle id="Oval-Copy-4" fill="#8CC63F" cx="188.990826" cy="55.0458716" r="5.50458716"></circle>
                    <circle id="Oval-Copy-5" fill="#8CC63F" cx="137.614679" cy="38.5321101" r="5.50458716"></circle>
                    <circle id="Oval-Copy-6" fill="#8CC63F" cx="91.7431193" cy="49.5412844" r="5.50458716"></circle>
                </g>
            </g>
        </g>
    </g>
</svg>