<?xml version="1.0" encoding="UTF-8"?>
<svg width="228px" height="100px" viewBox="0 0 228 100" version="1.1" xmlns="http://www.w3.org/2000/svg" xmlns:xlink="http://www.w3.org/1999/xlink">
    <!-- Generator: Sketch 46.2 (44496) - http://www.bohemiancoding.com/sketch -->
    <title>Group 3</title>
    <desc>Created with Sketch.</desc>
    <defs></defs>
    <g id="Page-1" stroke="none" stroke-width="1" fill="none" fill-rule="evenodd">
        <g id="Home-Page-Copy-3" transform="translate(-606.000000, -2566.000000)" fill="#8CC63F">
            <g id="200k-drivers" transform="translate(562.000000, 2540.000000)">
                <g id="Group-3" transform="translate(44.000000, 26.000000)">
                    <rect id="Rectangle-22" x="0" y="91.0819738" width="8" height="8.00720649"></rect>
                    <rect id="Rectangle-22-Copy" x="0" y="78.0702632" width="8" height="8.00720649"></rect>
                    <rect id="Rectangle-22-Copy-14" x="0" y="65.0585527" width="8" height="8.00720649"></rect>
                    <rect id="Rectangle-22-Copy-3" x="20" y="91.0819738" width="8" height="8.00720649"></rect>
                    <rect id="Rectangle-22-Copy-2" x="20" y="78.0702632" width="8" height="8.00720649"></rect>
                    <rect id="Rectangle-22-Copy-5" x="20" y="65.0585527" width="8" height="8.00720649"></rect>
                    <rect id="Rectangle-22-Copy-4" x="20" y="52.0468422" width="8" height="8.00720649"></rect>
                    <rect id="Rectangle-22-Copy-9" x="40" y="91.0819738" width="8" height="8.00720649"></rect>
                    <rect id="Rectangle-22-Copy-8" x="40" y="78.0702632" width="8" height="8.00720649"></rect>
                    <rect id="Rectangle-22-Copy-7" x="40" y="65.0585527" width="8" height="8.00720649"></rect>
                    <rect id="Rectangle-22-Copy-6" x="40" y="52.0468422" width="8" height="8.00720649"></rect>
                    <rect id="Rectangle-22-Copy-53" x="40" y="39.0351316" width="8" height="8.00720649"></rect>
                    <rect id="Rectangle-22-Copy-52" x="40" y="26.0234211" width="8" height="8.00720649"></rect>
                    <rect id="Rectangle-22-Copy-13" x="60" y="91.0819738" width="8" height="8.00720649"></rect>
                    <rect id="Rectangle-22-Copy-12" x="60" y="78.0702632" width="8" height="8.00720649"></rect>
                    <rect id="Rectangle-22-Copy-11" x="60" y="65.0585527" width="8" height="8.00720649"></rect>
                    <rect id="Rectangle-22-Copy-10" x="60" y="52.0468422" width="8" height="8.00720649"></rect>
                    <rect id="Rectangle-22-Copy-17" x="80" y="91.0819738" width="8" height="8.00720649"></rect>
                    <rect id="Rectangle-22-Copy-16" x="80" y="78.0702632" width="8" height="8.00720649"></rect>
                    <rect id="Rectangle-22-Copy-15" x="80" y="65.0585527" width="8" height="8.00720649"></rect>
                    <rect id="Rectangle-22-Copy-21" x="100" y="91.0819738" width="8" height="8.00720649"></rect>
                    <rect id="Rectangle-22-Copy-20" x="100" y="78.0702632" width="8" height="8.00720649"></rect>
                    <rect id="Rectangle-22-Copy-19" x="100" y="65.0585527" width="8" height="8.00720649"></rect>
                    <rect id="Rectangle-22-Copy-18" x="100" y="52.0468422" width="8" height="8.00720649"></rect>
                    <rect id="Rectangle-22-Copy-51" x="100" y="39.0351316" width="8" height="8.00720649"></rect>
                    <rect id="Rectangle-22-Copy-50" x="100" y="26.0234211" width="8" height="8.00720649"></rect>
                    <rect id="Rectangle-22-Copy-25" x="120" y="91.0819738" width="8" height="8.00720649"></rect>
                    <rect id="Rectangle-22-Copy-24" x="120" y="78.0702632" width="8" height="8.00720649"></rect>
                    <rect id="Rectangle-22-Copy-23" x="120" y="65.0585527" width="8" height="8.00720649"></rect>
                    <rect id="Rectangle-22-Copy-22" x="120" y="52.0468422" width="8" height="8.00720649"></rect>
                    <rect id="Rectangle-22-Copy-49" x="120" y="39.0351316" width="8" height="8.00720649"></rect>
                    <rect id="Rectangle-22-Copy-48" x="120" y="26.0234211" width="8" height="8.00720649"></rect>
                    <rect id="Rectangle-22-Copy-47" x="120" y="13.0117105" width="8" height="8.00720649"></rect>
                    <rect id="Rectangle-22-Copy-46" x="120" y="0" width="8" height="8.00720649"></rect>
                    <rect id="Rectangle-22-Copy-29" x="140" y="91.0819738" width="8" height="8.00720649"></rect>
                    <rect id="Rectangle-22-Copy-28" x="140" y="78.0702632" width="8" height="8.00720649"></rect>
                    <rect id="Rectangle-22-Copy-27" x="140" y="65.0585527" width="8" height="8.00720649"></rect>
                    <rect id="Rectangle-22-Copy-26" x="140" y="52.0468422" width="8" height="8.00720649"></rect>
                    <rect id="Rectangle-22-Copy-57" x="140" y="39.0351316" width="8" height="8.00720649"></rect>
                    <rect id="Rectangle-22-Copy-33" x="160" y="91.0819738" width="8" height="8.00720649"></rect>
                    <rect id="Rectangle-22-Copy-32" x="160" y="78.0702632" width="8" height="8.00720649"></rect>
                    <rect id="Rectangle-22-Copy-31" x="160" y="65.0585527" width="8" height="8.00720649"></rect>
                    <rect id="Rectangle-22-Copy-30" x="160" y="52.0468422" width="8" height="8.00720649"></rect>
                    <rect id="Rectangle-22-Copy-56" x="160" y="39.0351316" width="8" height="8.00720649"></rect>
                    <rect id="Rectangle-22-Copy-55" x="160" y="26.0234211" width="8" height="8.00720649"></rect>
                    <rect id="Rectangle-22-Copy-54" x="160" y="13.0117105" width="8" height="8.00720649"></rect>
                    <rect id="Rectangle-22-Copy-37" x="180" y="91.0819738" width="8" height="8.00720649"></rect>
                    <rect id="Rectangle-22-Copy-36" x="180" y="78.0702632" width="8" height="8.00720649"></rect>
                    <rect id="Rectangle-22-Copy-35" x="180" y="65.0585527" width="8" height="8.00720649"></rect>
                    <rect id="Rectangle-22-Copy-34" x="180" y="52.0468422" width="8" height="8.00720649"></rect>
                    <rect id="Rectangle-22-Copy-59" x="180" y="39.0351316" width="8" height="8.00720649"></rect>
                    <rect id="Rectangle-22-Copy-58" x="180" y="26.0234211" width="8" height="8.00720649"></rect>
                    <rect id="Rectangle-22-Copy-41" x="200" y="91.0819738" width="8" height="8.00720649"></rect>
                    <rect id="Rectangle-22-Copy-40" x="200" y="78.0702632" width="8" height="8.00720649"></rect>
                    <rect id="Rectangle-22-Copy-39" x="200" y="65.0585527" width="8" height="8.00720649"></rect>
                    <rect id="Rectangle-22-Copy-38" x="200" y="52.0468422" width="8" height="8.00720649"></rect>
                    <rect id="Rectangle-22-Copy-45" x="220" y="91.0819738" width="8" height="8.00720649"></rect>
                    <rect id="Rectangle-22-Copy-44" x="220" y="78.0702632" width="8" height="8.00720649"></rect>
                    <rect id="Rectangle-22-Copy-43" x="220" y="65.0585527" width="8" height="8.00720649"></rect>
                    <rect id="Rectangle-22-Copy-42" x="220" y="52.0468422" width="8" height="8.00720649"></rect>
                    <rect id="Rectangle-22-Copy-62" x="220" y="39.0351316" width="8" height="8.00720649"></rect>
                    <rect id="Rectangle-22-Copy-61" x="220" y="26.0234211" width="8" height="8.00720649"></rect>
                    <rect id="Rectangle-22-Copy-60" x="220" y="13.0117105" width="8" height="8.00720649"></rect>
                </g>
            </g>
        </g>
    </g>
</svg>